<?xml version="1.0" encoding="UTF-8"?>
<!DOCTYPE svg PUBLIC "-//W3C//DTD SVG 1.1//EN" "http://www.w3.org/Graphics/SVG/1.1/DTD/svg11.dtd">
<svg xmlns="http://www.w3.org/2000/svg" xml:space="preserve" version="1.1" style="shape-rendering:geometricPrecision; text-rendering:geometricPrecision; image-rendering:optimizeQuality; fill-rule:evenodd; clip-rule:evenodd"
viewBox="0 0 257 66"
 xmlns:xlink="http://www.w3.org/1999/xlink">
 <defs>
  <style type="text/css">
   <![CDATA[
    .fil1 {fill:black}
    .fil0 {fill:#DB7451}
   ]]>
  </style>
 </defs>
   <path class="fil0" d="M44.31 11.46c2.39,-0.76 4.67,-1.48 6.94,-2.19 0.97,-0.31 1.9,-0.65 2.88,-0.89 0.67,-0.18 1.37,-0.3 2.06,-0.31 1.29,-0.03 1.92,0.47 2.14,1.65 0.1,0.51 0.12,1.05 0.12,1.56 0,3.08 -0.02,6.14 -0.03,9.22 0,0.2 0.04,0.4 0.07,0.7 0.45,0.09 0.9,0.18 1.36,0.28 2.08,0.41 4.16,0.82 6.24,1.22 0.13,0.03 0.25,0.06 0.38,0.09 2.51,0.67 3.05,1.61 2.22,3.94 -0.64,1.81 -1.33,3.62 -2.07,5.4 -0.5,1.18 -1.26,2.28 -2.35,3.06 -0.75,0.54 -1.64,0.91 -2.58,1.42 0.61,0.55 1.24,1.09 1.83,1.65 1.83,1.7 3.65,3.4 5.83,4.74 0.77,0.48 0.78,0.73 0.13,1.47 -1.21,1.39 -2.63,2.57 -4.32,3.39 -1.75,0.84 -3.59,1.54 -5.39,2.3 -0.43,0.19 -0.89,0.34 -1.34,0.5 -0.03,0.2 -0.09,0.38 -0.06,0.52 0.56,2.5 -0.24,4.72 -1.76,6.8 -0.28,0.37 -0.54,0.75 -0.86,1.08 -1.29,1.39 -2.21,2.91 -2.57,4.74 -0.37,1.78 -1.08,2.12 -2.86,1.42 -2.38,-0.95 -4.76,-1.93 -7.06,-3.02 -1.1,-0.51 -2.06,-1.3 -3.18,-2.03 -0.13,0.16 -0.37,0.38 -0.51,0.64 -0.79,1.33 -1.53,2.67 -2.34,3.99 -0.65,1.1 -1.22,1.32 -2.33,0.7 -3.34,-1.86 -6.58,-3.86 -9.05,-6.71 -0.45,-0.53 -0.81,-1.13 -1.21,-1.71 -0.2,-0.29 -0.39,-0.6 -0.61,-0.94 -2.23,1.03 -4.61,0.78 -6.87,1.2 -1.8,0.34 -3.58,0.76 -5.36,1.21 -1.12,0.29 -1.24,0.32 -1.69,-0.65 -0.96,-2.08 -1.62,-4.25 -1.79,-6.53 -0.18,-2.3 0.08,-4.53 1.66,-6.46 -0.95,-0.92 -3.52,-1.96 -5.28,-2.19 -0.73,-0.1 -1.48,-0.14 -2.19,-0.32 -1.75,-0.42 -2.13,-1.44 -1.01,-2.77 0.54,-0.63 1.2,-1.21 1.88,-1.71 1.49,-1.09 3.02,-2.13 4.53,-3.19 0.35,-0.25 0.7,-0.48 1.21,-0.85 -2.04,-1.58 -3.65,-3.37 -5.02,-5.36 -1.36,-1.94 -2.71,-3.88 -4.1,-5.87 0.23,-0.17 0.38,-0.33 0.55,-0.38 1.91,-0.59 3.84,-1.17 5.77,-1.73 1.78,-0.51 3.59,-0.74 5.42,-0.37 0.16,0.02 0.34,-0.02 0.62,-0.02 0.07,-0.36 0.19,-0.71 0.22,-1.06 0.24,-2.24 0.96,-4.38 1.78,-6.48 0.71,-1.84 1.69,-2.39 3.73,-2.06 1.09,0.18 2.15,0.6 3.21,0.92 0.61,0.19 1.2,0.42 1.93,0.68 0.14,-0.43 0.27,-0.75 0.36,-1.09 1.08,-4.13 3.63,-7.47 6.64,-10.58 0.47,-0.48 0.83,-0.38 1.34,-0.04 1.9,1.25 3.82,2.47 5.74,3.71 1.09,0.71 2.21,1.38 3.26,2.15 1.59,1.17 2.76,2.65 3.36,4.47 0.1,0.2 0.23,0.38 0.38,0.69zm-7.34 23.34c0.28,-0.06 0.53,-0.09 0.76,-0.18 2.52,-0.99 5.15,-1.62 7.82,-2.13 2.42,-0.46 4.73,-1.25 6.86,-2.43 2.56,-1.42 4.21,-3.45 4.71,-6.19 0.12,-0.68 0.29,-1.36 0.31,-2.04 0.11,-3.56 0.18,-7.12 0.27,-10.67 0,-0.27 -0.01,-0.57 -0.06,-0.84 -0.14,-1.07 -0.64,-1.53 -1.81,-1.46 -0.81,0.04 -1.66,0.16 -2.43,0.41 -3.18,1.05 -6.36,2.13 -9.5,3.28 -3.94,1.44 -6.26,4.26 -7.43,7.94 -1.44,4.53 -1.38,9.12 -0.62,13.71 0.01,0.13 0.11,0.25 0.27,0.57 0.69,-1.52 1.29,-2.83 1.89,-4.13 1.06,-2.33 2.26,-4.59 3.8,-6.71 0.25,-0.34 0.54,-0.64 0.82,-0.96 0.09,0.05 0.18,0.11 0.25,0.16 -2.19,2.97 -3.97,6.11 -5.09,9.74 0.42,-0.2 0.7,-0.3 0.93,-0.45 4.63,-3.14 8.21,-7.07 10.78,-11.86 -0.01,0.44 -0.14,0.8 -0.32,1.15 -2.64,4.93 -6.3,9.03 -11.38,12 -0.41,0.24 -0.86,0.45 -0.83,1.09zm-0.54 0.96c-0.12,0.09 -0.22,0.19 -0.34,0.28 0.21,0.42 0.37,0.87 0.65,1.25 1.37,1.94 2.68,3.93 4.17,5.78 2.03,2.53 4.54,4.6 7.53,6.14 2.26,1.17 4.7,1.64 7.29,1.22 3.49,-0.57 6.77,-1.74 9.81,-3.43 0.92,-0.51 1.76,-1.23 2.48,-1.99 0.9,-0.96 0.76,-1.44 -0.29,-2.21 -0.72,-0.53 -1.43,-1.04 -2.09,-1.61 -1.84,-1.62 -3.58,-3.37 -5.49,-4.92 -4.15,-3.35 -9.04,-4.11 -14.41,-2.84 -2.04,0.48 -4.07,1 -6.1,1.52 -0.39,0.1 -0.79,0.23 -1.18,0.33 0,0.09 0,0.18 0,0.26 0.49,0.11 0.98,0.24 1.47,0.31 1.8,0.28 3.61,0.54 5.42,0.79 3.73,0.51 7.25,1.6 10.63,3.08 0.31,0.13 0.75,0.2 0.76,0.9 -5.5,-2.51 -11.26,-3.49 -17.22,-3.87 0.35,0.34 0.72,0.59 1.13,0.81 2.78,1.56 5.73,2.78 8.85,3.69 2.32,0.67 4.6,1.41 6.89,2.16 0.41,0.13 0.79,0.36 1.18,0.55 -0.04,0.1 -0.09,0.19 -0.13,0.29 -0.35,-0.06 -0.71,-0.1 -1.07,-0.19 -2.43,-0.71 -4.88,-1.4 -7.29,-2.17 -4,-1.27 -7.79,-2.9 -11.1,-5.35 -0.45,-0.33 -1.02,-0.51 -1.55,-0.78zm-2.39 1.52c-0.09,-0.04 -0.18,-0.09 -0.26,-0.12 -0.31,0.32 -0.65,0.62 -0.94,0.97 -1.27,1.51 -2.58,3 -3.79,4.56 -1.65,2.13 -3.01,4.42 -3.97,6.9 -1.27,3.32 -0.74,6.34 1.69,8.95 1.78,1.91 3.79,3.6 6.06,5.02 0.49,0.3 1.02,0.59 1.56,0.84 1.47,0.67 2.07,0.47 2.81,-0.9 0.46,-0.85 0.94,-1.67 1.36,-2.51 1.18,-2.32 2.52,-4.6 3.46,-6.99 1.41,-3.63 0.73,-7.05 -1.87,-10.01 -1.6,-1.84 -3.02,-3.79 -4.14,-5.92 -0.12,-0.22 -0.32,-0.4 -0.66,-0.79 -0.01,0.51 -0.03,0.76 -0.01,0.99 0.1,3.47 0.49,6.92 1.05,10.36 0.21,1.34 0.1,2.73 0.05,4.1 -0.01,0.44 -0.24,0.88 -0.39,1.31 -0.09,-0.01 -0.19,-0.03 -0.28,-0.04 -0.01,-0.18 -0.07,-0.35 -0.05,-0.53 0.33,-2.31 0.05,-4.59 -0.37,-6.87 -0.47,-2.51 -0.77,-5.03 -0.63,-7.58 0.02,-0.34 -0.03,-0.68 -0.04,-1.01 -0.09,0 -0.18,-0.02 -0.26,-0.02 -0.53,2.13 -1.13,4.25 -1.55,6.39 -0.5,2.6 -0.83,5.23 -1.24,7.83 -0.06,0.39 0.06,0.88 -0.53,1.13 -0.08,-0.14 -0.2,-0.23 -0.21,-0.33 0.01,-5.41 1.28,-10.61 3.15,-15.73zm0.17 -4.22c0.06,-0.04 0.1,-0.07 0.16,-0.11 -0.26,-1.87 -0.49,-3.75 -0.77,-5.62 -0.23,-1.59 -0.38,-3.22 -0.82,-4.77 -1.88,-6.86 -9.64,-10.42 -14.54,-11.05 -1.65,-0.2 -2.67,0.44 -3.3,2.05 -0.93,2.42 -1.55,4.91 -1.58,7.5 -0.01,1.76 0.5,3.37 1.78,4.65 0.94,0.93 1.94,1.82 3.05,2.58 3.74,2.56 8.06,4 12.52,5.11 0.04,0.01 0.13,-0.07 0.22,-0.13 -1.62,-1.13 -3.28,-2.18 -4.83,-3.37 -2.13,-1.67 -3.47,-3.4 -3.56,-4.54 3.21,3.71 7.18,6.54 11.67,8.77 -0.03,-0.24 -0.13,-0.38 -0.25,-0.53 -1.1,-1.47 -2.27,-2.9 -3.32,-4.42 -0.86,-1.24 -1.55,-2.59 -2.35,-3.88 -1.21,-1.95 -2.58,-3.79 -4.51,-5.22 -0.13,-0.1 -0.19,-0.28 -0.39,-0.6 1.19,0.26 1.86,0.89 2.56,1.44 1.65,1.35 2.75,3.07 3.77,4.85 1.01,1.76 2,3.56 3.05,5.31 0.42,0.71 0.96,1.34 1.44,1.98zm-19.68 8.68c3.08,-0.39 6.13,-0.72 9.08,-1.72 2.97,-0.99 5.54,-2.67 8.57,-4.08 -0.46,-0.12 -0.62,-0.19 -0.77,-0.19 -3.05,-0.03 -6.1,-0.1 -9.15,-0.06 -2.72,0.04 -5.38,0.55 -7.89,1.65 -0.15,0.06 -0.35,0.03 -0.51,0.04 0.22,-0.35 0.48,-0.55 0.77,-0.71 1.81,-0.95 3.78,-1.33 5.81,-1.37 2.7,-0.06 5.4,0 8.1,0.01 1,0 2,0 3,-0.01 -3.09,-1.2 -6.17,-2.21 -9.26,-3.24 -3.28,-1.1 -6.42,-0.67 -9.46,0.9 -0.99,0.51 -1.98,1.07 -2.9,1.68 -2.17,1.46 -4.32,2.95 -6.45,4.48 -0.47,0.33 -0.83,0.84 -1.15,1.33 -0.29,0.45 -0.13,0.87 0.39,1.09 0.28,0.12 0.57,0.22 0.86,0.23 2.11,0.11 3.93,0.94 5.75,1.78 1.78,0.82 3.56,1.64 5.4,2.34 1.84,0.7 3.78,0.87 5.76,0.51 2.16,-0.4 4.06,-1.3 5.78,-2.55 2.69,-1.95 4.25,-4.72 6.42,-7.37 -0.68,0.29 -1.17,0.45 -1.6,0.67 -1,0.52 -2,1.05 -2.97,1.62 -3.26,1.94 -6.85,2.9 -10.65,3.22 -0.96,0.09 -1.95,0.15 -2.93,-0.25zm29.09 -29.99c-0.2,-0.51 -0.35,-0.97 -0.57,-1.37 -0.72,-1.35 -1.76,-2.46 -2.96,-3.46 -2.54,-2.13 -5.56,-3.64 -8.44,-5.3 -0.75,-0.42 -1.08,-0.33 -1.71,0.34 -2.54,2.71 -4.6,5.69 -5.52,9.2 -0.35,1.32 -0.35,1.33 0.94,1.94 4.2,2.02 7.07,5.04 8.21,9.37 0.25,0.93 0.42,1.88 0.66,2.83 0.06,0.23 0.16,0.45 0.25,0.67 0.21,-0.36 0.23,-0.68 0.3,-0.99 0.51,-2.09 0.91,-4.22 1.59,-6.27 0.94,-2.82 2.91,-4.91 5.78,-6.23 0.47,-0.21 0.9,-0.46 1.47,-0.73zm-0.57 35.03c0.06,0.54 0.06,0.82 0.13,1.08 0.62,2.59 0.33,5.15 -0.78,7.63 -0.47,1.05 -0.98,2.1 -1.53,3.11 -0.31,0.56 -0.28,1.03 0.26,1.37 1.06,0.68 2.11,1.38 3.24,1.97 1.28,0.65 2.62,1.21 3.97,1.78 0.81,0.35 1.66,0.65 2.52,0.92 0.99,0.29 1.15,0.13 1.49,-0.76 0.38,-1.04 0.82,-2.06 1.37,-3.02 0.58,-1.01 1.38,-1.9 1.97,-2.91 0.68,-1.13 1.34,-2.3 1.81,-3.51 0.44,-1.11 0.45,-2.28 -0.03,-3.49 -2.66,0.42 -5.2,0.64 -7.68,-0.28 -2.4,-0.89 -4.53,-2.21 -6.74,-3.89zm-32.21 -1.65c-0.18,0.25 -0.28,0.33 -0.32,0.45 -1.68,3.55 -1.48,7.12 -0.32,10.67 0.41,1.27 1.16,1.6 2.64,1.22 2.67,-0.68 5.38,-1.08 8.12,-1.24 0.65,-0.04 1.3,-0.19 1.93,-0.35 0.32,-0.07 0.6,-0.26 0.77,-0.33 -0.05,-1.32 -0.2,-2.48 -0.11,-3.64 0.14,-1.97 1.02,-3.76 2.07,-5.48 0.26,-0.44 0.52,-0.88 0.79,-1.32 -0.56,0.09 -0.94,0.31 -1.3,0.52 -1.49,0.81 -3.07,1.41 -4.79,1.64 -2.65,0.35 -5.1,-0.21 -7.45,-1.24 -0.64,-0.29 -1.3,-0.58 -2.03,-0.9zm39.52 -13.19c0.03,0.09 0.08,0.17 0.11,0.26 0.42,0.03 0.84,0.03 1.25,0.1 1.52,0.31 3.09,0.49 4.52,1.01 1.35,0.48 2.57,1.28 3.78,2.04 0.6,0.38 1.11,0.47 1.8,0.24 1.46,-0.51 2.59,-1.33 3.37,-2.6 1.24,-2.04 2.05,-4.23 2.74,-6.45 0.36,-1.22 -0.45,-2.58 -1.75,-2.89 -2.22,-0.52 -4.47,-0.98 -6.71,-1.43 -0.32,-0.07 -0.67,0 -1.26,0 -0.14,4.86 -3.1,7.9 -7.85,9.72zm-48.87 -8.97c0.1,0.27 0.14,0.43 0.22,0.57 1.41,2.77 3.38,5.19 5.47,7.54 0.54,0.61 1.19,1.14 1.85,1.66 0.91,0.73 0.93,0.72 2.03,0.12 2.58,-1.43 5.31,-2.32 8.34,-2.13 0.18,0.01 0.37,-0.04 0.81,-0.12 -0.6,-0.38 -1,-0.61 -1.36,-0.87 -1.39,-1.08 -2.82,-2.1 -4.13,-3.24 -1.33,-1.15 -2.07,-2.63 -2.23,-4.35 -0.05,-0.39 -0.1,-0.77 -0.16,-1.18 -1.67,-0.29 -3.21,-0.18 -4.76,0.2 -1.65,0.41 -3.3,0.83 -4.93,1.29 -0.39,0.1 -0.76,0.33 -1.15,0.51z"/>
   <path class="fil1" d="M198.79 47.01c-0.08,0.18 -0.13,0.32 -0.15,0.47l-0.33 0 0 -1.58 0.33 0c0.06,0.24 0.15,0.44 0.25,0.64 0.45,0.91 2.01,1.01 2.01,0.06 0,-0.55 -0.75,-0.77 -1.16,-0.95 -0.69,-0.29 -1.58,-0.8 -1.43,-1.68 0.16,-0.97 1.33,-1.36 2.16,-0.97 0.2,0.1 0.39,0.23 0.55,0.39 0.04,-0.1 0.09,-0.23 0.12,-0.41l0.35 0 0 1.29 -0.35 0c-0.25,-0.7 -0.67,-1.05 -1.29,-1.05 -0.36,0 -0.73,0.18 -0.73,0.58 0,0.13 0.05,0.25 0.13,0.35 0.6,0.7 2.46,0.76 2.61,1.95 0.2,1.56 -2.11,2.03 -3.07,0.91zm50.58 -1.66c0,0.66 -0.06,1.33 -0.55,1.82 -0.32,0.32 -0.69,0.5 -1.12,0.5 -0.19,0 -0.38,-0.03 -0.57,-0.11 -0.85,-0.32 -1.11,-1.27 -1.11,-2.1 0,-1.08 0.28,-2.48 1.68,-2.48 1.31,0 1.67,1.27 1.67,2.37zm-1.22 -1.84c-0.2,-0.29 -0.72,-0.28 -0.89,0.03 -0.27,0.38 -0.23,1.45 -0.24,1.96 0,0.49 0.01,1.24 0.24,1.6 0.18,0.27 0.59,0.31 0.83,0.1 0.1,-0.09 0.16,-0.22 0.2,-0.38 0.11,-0.38 0.09,-0.84 0.09,-1.24 0,-0.55 0.08,-1.67 -0.23,-2.07zm-57.59 1.75c0,-0.72 -0.58,-1.3 -1.3,-1.3 -0.72,0 -1.3,0.58 -1.3,1.3 0,0.72 0.58,1.3 1.3,1.3 0.72,0 1.3,-0.58 1.3,-1.3zm45.68 -9.83c-0.26,-0.08 -0.5,-0.19 -0.7,-0.32 -0.29,-0.21 -0.56,-0.52 -0.8,-0.92 -0.25,-0.41 -0.59,-1.08 -1.01,-2.02l-5.57 -12.46 -0.73 0 -4.7 11.18c-0.42,1.02 -0.77,1.78 -1.04,2.29 -0.26,0.51 -0.52,0.92 -0.8,1.25 -0.32,0.41 -0.66,0.7 -1.01,0.88 -0.35,0.18 -0.74,0.28 -1.19,0.31l0 0.27 5.75 0 0 -0.27c-0.53,-0.05 -0.95,-0.16 -1.29,-0.38 -0.23,-0.16 -0.42,-0.37 -0.57,-0.62 -0.14,-0.24 -0.22,-0.52 -0.22,-0.81 0,-0.5 0.19,-1.18 0.59,-2.06l0.32 -0.73 0.67 -1.63 0.2 -0.48 2.54 -6.15 2.7 6.15 0.21 0.48 1.22 2.8 0.22 0.49c0.23,0.54 0.36,0.98 0.36,1.3 0,0.54 -0.26,0.98 -0.78,1.29 -0.31,0.17 -0.83,0.29 -1.59,0.35l0 0.27 8.42 0 0 -0.27c-0.54,-0.05 -0.94,-0.12 -1.2,-0.19zm-89.38 0c-0.26,-0.08 -0.49,-0.19 -0.7,-0.32 -0.29,-0.21 -0.55,-0.52 -0.8,-0.92 -0.25,-0.41 -0.59,-1.08 -1.01,-2.02l-5.57 -12.46 -0.73 0 -4.7 11.18c-0.42,1.02 -0.77,1.78 -1.04,2.29 -0.26,0.51 -0.52,0.92 -0.8,1.25 -0.32,0.41 -0.65,0.7 -1,0.88 -0.35,0.18 -0.75,0.28 -1.2,0.31l0 0.27 5.75 0 0 -0.27c-0.53,-0.05 -0.95,-0.16 -1.29,-0.38 -0.23,-0.16 -0.42,-0.37 -0.56,-0.62 -0.15,-0.24 -0.22,-0.52 -0.22,-0.81 0,-0.5 0.19,-1.18 0.58,-2.06l0.32 -0.73 0.67 -1.63 0.21 -0.48 2.54 -6.15 2.69 6.15 0.21 0.48 1.22 2.8 0.22 0.49c0.24,0.54 0.37,0.98 0.37,1.3 0,0.54 -0.27,0.98 -0.79,1.29 -0.31,0.17 -0.83,0.29 -1.59,0.35l0 0.27 8.42 0 0 -0.27c-0.53,-0.05 -0.94,-0.12 -1.2,-0.19zm94.79 -13.57l0 10.31c0,0.82 0.05,1.42 0.15,1.8 0.1,0.39 0.28,0.7 0.54,0.96 0.23,0.23 0.51,0.39 0.82,0.5 0.3,0.1 0.7,0.16 1.18,0.19l0 0.27 -5.91 0 0 -0.27c0.48,-0.03 0.87,-0.09 1.18,-0.19 0.31,-0.11 0.57,-0.27 0.82,-0.5 0.26,-0.25 0.45,-0.57 0.54,-0.96 0.1,-0.4 0.14,-0.99 0.14,-1.8l0 -8.74c0,-0.8 -0.04,-1.38 -0.14,-1.78 -0.11,-0.39 -0.28,-0.71 -0.54,-0.96 -0.24,-0.23 -0.5,-0.39 -0.81,-0.5 -0.3,-0.1 -0.7,-0.16 -1.19,-0.18l0 -0.28 4.93 0 10.42 12.27 0 -8.55c0,-0.82 -0.05,-1.42 -0.15,-1.8 -0.1,-0.39 -0.28,-0.7 -0.54,-0.96 -0.23,-0.23 -0.51,-0.39 -0.82,-0.5 -0.3,-0.1 -0.7,-0.16 -1.18,-0.18l0 -0.28 5.91 0 0 0.27c-0.86,0 -1.52,0.24 -2,0.69 -0.26,0.25 -0.45,0.57 -0.54,0.96 -0.1,0.4 -0.14,1 -0.14,1.78l0 12.46 -0.59 0 -12.08 -14.03zm-38.59 5.38l9.11 0 0 -3.81c0,-0.81 -0.05,-1.41 -0.15,-1.79 -0.1,-0.39 -0.28,-0.7 -0.54,-0.96 -0.23,-0.24 -0.51,-0.4 -0.82,-0.5 -0.3,-0.1 -0.7,-0.16 -1.19,-0.19l0 -0.28 8.2 0 0 0.28c-0.49,0.03 -0.88,0.09 -1.19,0.19 -0.3,0.1 -0.56,0.26 -0.81,0.5 -0.27,0.24 -0.46,0.56 -0.54,0.96 -0.1,0.39 -0.15,0.99 -0.15,1.79l0 8.74c0,0.81 0.05,1.4 0.15,1.8 0.1,0.39 0.27,0.71 0.54,0.98 0.23,0.21 0.51,0.37 0.81,0.49 0.31,0.1 0.7,0.18 1.19,0.19l0 0.28 -8.2 0 0 -0.28c0.49,-0.03 0.89,-0.09 1.19,-0.19 0.31,-0.1 0.57,-0.28 0.82,-0.49 0.26,-0.25 0.45,-0.57 0.54,-0.97 0.1,-0.39 0.15,-0.99 0.15,-1.79l0 -4.38 -9.11 0 0 4.38c0,0.8 0.05,1.4 0.15,1.79 0.1,0.4 0.28,0.72 0.54,0.97 0.23,0.21 0.49,0.37 0.8,0.49 0.31,0.1 0.7,0.18 1.2,0.19l0 0.28 -8.2 0 0 -0.28c0.49,-0.03 0.89,-0.09 1.19,-0.19 0.31,-0.1 0.57,-0.28 0.8,-0.49 0.28,-0.25 0.46,-0.57 0.56,-0.97 0.1,-0.39 0.15,-0.99 0.15,-1.79l0 -8.74c0,-0.82 -0.05,-1.42 -0.15,-1.8 -0.1,-0.38 -0.28,-0.7 -0.56,-0.96 -0.23,-0.23 -0.49,-0.39 -0.8,-0.5 -0.3,-0.1 -0.7,-0.16 -1.19,-0.18l0 -0.28 8.2 0 0 0.27c-0.48,0.03 -0.88,0.09 -1.19,0.19 -0.3,0.11 -0.56,0.27 -0.81,0.5 -0.26,0.25 -0.46,0.57 -0.54,0.96 -0.1,0.4 -0.15,1 -0.15,1.8l0 3.79zm-19.24 0.41l5.43 -4.98c0.54,-0.49 0.87,-0.81 1,-1 0.13,-0.18 0.21,-0.38 0.21,-0.58 0,-0.4 -0.21,-0.69 -0.62,-0.88 -0.22,-0.09 -0.57,-0.16 -1.08,-0.22l0 -0.28 5.53 0 0 0.28c-0.38,0.03 -0.68,0.09 -0.94,0.18 -0.25,0.08 -0.53,0.21 -0.84,0.42 -0.33,0.22 -0.9,0.68 -1.72,1.41l-4.16 3.7 5.91 6.97 0.73 0.86c0.54,0.61 1.1,1.09 1.68,1.44 0.35,0.22 0.66,0.37 0.92,0.46 0.26,0.08 0.6,0.16 1.01,0.2l0 0.28 -8.48 0 0 -0.28c0.64,-0.04 1.11,-0.14 1.38,-0.29 0.28,-0.15 0.43,-0.36 0.43,-0.66 0,-0.32 -0.18,-0.71 -0.53,-1.21 -0.17,-0.23 -0.49,-0.64 -0.96,-1.22 -0.47,-0.59 -0.86,-1.07 -1.2,-1.42l-2.89 -3.31 -0.83 0.76 0 3.92c0,0.8 0.05,1.4 0.15,1.8 0.1,0.39 0.28,0.71 0.54,0.96 0.23,0.22 0.49,0.38 0.8,0.5 0.31,0.1 0.7,0.17 1.2,0.19l0 0.27 -8.2 0 0 -0.27c0.49,-0.03 0.89,-0.09 1.19,-0.19 0.31,-0.11 0.57,-0.28 0.81,-0.5 0.27,-0.25 0.45,-0.57 0.55,-0.96 0.1,-0.4 0.15,-1 0.15,-1.8l0 -8.74c0,-0.81 -0.05,-1.41 -0.15,-1.79 -0.1,-0.38 -0.28,-0.7 -0.55,-0.96 -0.24,-0.24 -0.5,-0.4 -0.81,-0.5 -0.3,-0.1 -0.7,-0.16 -1.19,-0.19l0 -0.28 8.2 0 0 0.28c-0.48,0.03 -0.88,0.09 -1.18,0.19 -0.31,0.1 -0.57,0.26 -0.82,0.49 -0.26,0.25 -0.45,0.57 -0.54,0.97 -0.1,0.39 -0.15,0.99 -0.15,1.79l0 4.19 0.02 0zm-29.24 -0.41l9.1 0 0 -3.81c0,-0.81 -0.04,-1.41 -0.14,-1.79 -0.11,-0.39 -0.28,-0.7 -0.54,-0.96 -0.24,-0.24 -0.51,-0.4 -0.82,-0.5 -0.31,-0.1 -0.7,-0.16 -1.2,-0.19l0 -0.28 8.2 0 0 0.28c-0.48,0.03 -0.87,0.09 -1.18,0.19 -0.3,0.1 -0.57,0.26 -0.82,0.5 -0.26,0.24 -0.45,0.56 -0.53,0.96 -0.11,0.39 -0.15,0.99 -0.15,1.79l0 8.74c0,0.81 0.04,1.4 0.15,1.8 0.1,0.39 0.27,0.71 0.53,0.98 0.24,0.21 0.52,0.37 0.82,0.49 0.31,0.1 0.7,0.18 1.18,0.19l0 0.28 -8.2 0 0 -0.28c0.5,-0.03 0.89,-0.09 1.2,-0.19 0.31,-0.1 0.57,-0.28 0.82,-0.49 0.26,-0.25 0.45,-0.57 0.54,-0.97 0.1,-0.39 0.14,-0.99 0.14,-1.79l0 -4.38 -9.1 0 0 4.38c0,0.8 0.04,1.4 0.15,1.79 0.1,0.4 0.27,0.72 0.54,0.97 0.23,0.21 0.49,0.37 0.8,0.49 0.3,0.1 0.7,0.18 1.19,0.19l0 0.28 -8.2 0 0 -0.28c0.5,-0.03 0.89,-0.09 1.2,-0.19 0.31,-0.1 0.57,-0.28 0.8,-0.49 0.28,-0.25 0.46,-0.57 0.56,-0.97 0.09,-0.39 0.14,-0.99 0.14,-1.79l0 -8.74c0,-0.82 -0.04,-1.42 -0.14,-1.8 -0.09,-0.39 -0.28,-0.7 -0.56,-0.96 -0.23,-0.23 -0.49,-0.39 -0.8,-0.5 -0.31,-0.1 -0.7,-0.16 -1.2,-0.18l0 -0.28 8.2 0 0 0.27c-0.48,0.03 -0.87,0.09 -1.18,0.19 -0.3,0.11 -0.57,0.27 -0.81,0.5 -0.27,0.25 -0.46,0.57 -0.54,0.96 -0.11,0.4 -0.15,1 -0.15,1.8l0 3.79zm-36.53 0.75l0 4.2c0,0.8 0.04,1.4 0.14,1.79 0.1,0.4 0.28,0.72 0.54,0.97 0.24,0.21 0.5,0.37 0.8,0.49 0.31,0.1 0.7,0.18 1.2,0.19l0 0.28 -8.2 0 0 -0.28c0.5,-0.03 0.89,-0.09 1.2,-0.19 0.3,-0.1 0.57,-0.28 0.8,-0.49 0.28,-0.25 0.45,-0.57 0.55,-0.97 0.11,-0.39 0.15,-0.99 0.15,-1.79l0 -8.74c0,-0.82 -0.04,-1.42 -0.15,-1.8 -0.1,-0.38 -0.27,-0.7 -0.55,-0.96 -0.23,-0.23 -0.5,-0.39 -0.8,-0.5 -0.31,-0.1 -0.7,-0.16 -1.2,-0.18l0 -0.28 6.19 0c1.03,0 1.7,0 2.04,0.01 1.33,0.06 2.36,0.22 3.12,0.5 0.85,0.32 1.51,0.79 1.97,1.41 0.47,0.63 0.7,1.36 0.7,2.19 0,1.23 -0.51,2.22 -1.52,2.96 -0.3,0.22 -0.64,0.41 -1.02,0.54 -0.38,0.15 -0.87,0.28 -1.48,0.41 0.51,0.21 0.89,0.41 1.13,0.62 0.19,0.16 0.38,0.37 0.54,0.62 0.16,0.25 0.41,0.69 0.73,1.33 0.76,1.44 1.34,2.51 1.72,3.17 0.4,0.67 0.72,1.15 0.98,1.44 0.22,0.25 0.42,0.41 0.63,0.51 0.2,0.09 0.48,0.16 0.83,0.19l0 0.28 -4.26 0c-0.22,-0.44 -0.35,-0.72 -0.41,-0.83l-0.9 -1.89c-0.54,-1.12 -1.08,-2.13 -1.64,-2.99 -0.54,-0.86 -1.05,-1.44 -1.5,-1.76 -0.23,-0.16 -0.48,-0.28 -0.74,-0.34 -0.27,-0.07 -0.59,-0.1 -0.98,-0.1l-0.61 0 0 -0.01zm0 -0.27l0.48 0c1.06,0 1.82,-0.05 2.27,-0.16 0.46,-0.11 0.89,-0.33 1.29,-0.68 0.9,-0.79 1.34,-1.77 1.34,-2.94 0,-0.62 -0.13,-1.21 -0.39,-1.76 -0.27,-0.56 -0.63,-1.01 -1.08,-1.36 -0.37,-0.26 -0.79,-0.45 -1.29,-0.57 -0.49,-0.1 -1.19,-0.16 -2.11,-0.16l-0.53 0 0 7.63 0.02 0zm-7.71 7.71c-0.26,-0.08 -0.49,-0.19 -0.7,-0.32 -0.29,-0.21 -0.55,-0.52 -0.8,-0.92 -0.25,-0.41 -0.58,-1.08 -1.01,-2.02l-5.57 -12.46 -0.73 0 -4.7 11.18c-0.42,1.02 -0.77,1.78 -1.03,2.29 -0.27,0.51 -0.53,0.92 -0.81,1.25 -0.32,0.41 -0.65,0.7 -1,0.88 -0.35,0.18 -0.75,0.28 -1.2,0.31l0 0.27 5.75 0 0 -0.27c-0.53,-0.05 -0.95,-0.16 -1.28,-0.38 -0.24,-0.16 -0.43,-0.37 -0.57,-0.62 -0.15,-0.24 -0.22,-0.52 -0.22,-0.81 0,-0.5 0.19,-1.18 0.58,-2.06l0.32 -0.73 0.67 -1.63 0.21 -0.48 2.54 -6.15 2.7 6.15 0.2 0.48 1.23 2.8 0.21 0.49c0.24,0.54 0.37,0.98 0.37,1.3 0,0.54 -0.26,0.98 -0.79,1.29 -0.31,0.17 -0.83,0.29 -1.59,0.35l0 0.27 8.42 0 0 -0.27c-0.54,-0.05 -0.93,-0.12 -1.2,-0.19zm-26.1 -7.98l0 4.72c0,0.81 0.05,1.4 0.15,1.78 0.09,0.38 0.27,0.7 0.54,0.97 0.23,0.23 0.49,0.39 0.81,0.49 0.31,0.1 0.72,0.18 1.2,0.19l0 0.28 -8.2 0 0 -0.28c0.41,0 0.8,-0.06 1.17,-0.19 0.36,-0.11 0.65,-0.29 0.86,-0.49 0.23,-0.25 0.41,-0.59 0.51,-1.01 0.1,-0.42 0.16,-1.02 0.16,-1.77l0 -8.74c0,-0.51 -0.03,-1.03 -0.09,-1.57 -0.08,-0.7 -0.45,-1.21 -1.11,-1.55 -0.36,-0.17 -0.86,-0.29 -1.5,-0.32l0 -0.28 13.39 0 0.37 3.86 -0.29 0.05c-0.22,-0.59 -0.41,-1.05 -0.59,-1.35 -0.4,-0.69 -0.96,-1.23 -1.69,-1.61 -0.42,-0.22 -0.9,-0.38 -1.44,-0.46 -0.54,-0.09 -1.3,-0.14 -2.26,-0.14l-1.99 0 0 6.99 0.51 0c1.52,0 2.61,-0.3 3.3,-0.93 0.31,-0.26 0.52,-0.58 0.69,-0.95 0.16,-0.36 0.26,-0.85 0.3,-1.44l0.29 0.01 -0.07 7.18 -0.31 0c-0.08,-0.8 -0.24,-1.43 -0.48,-1.87 -0.23,-0.44 -0.57,-0.79 -1.03,-1.06 -0.34,-0.21 -0.76,-0.34 -1.27,-0.44 -0.5,-0.03 -1.14,-0.07 -1.93,-0.07zm0.07 15.64l-0.1 0.29c-0.38,0 -0.7,0.2 -1,0.41l-1.7 1.12 1.1 1.82c0.06,0.11 0.1,0.18 0.16,0.24 0.04,0.06 0.11,0.1 0.19,0.11 0.07,0.03 0.17,0.03 0.3,0.03l-0.1 0.3 -2.11 0 0.1 -0.3c0.14,0 0.28,-0.01 0.36,-0.03 0.09,-0.01 0.13,-0.07 0.13,-0.17 0,-0.06 -0.01,-0.12 -0.05,-0.19l-0.79 -1.33 -0.66 0.45 -0.23 0.69c-0.05,0.13 -0.06,0.23 -0.06,0.28 0,0.1 0.04,0.19 0.13,0.23 0.09,0.04 0.21,0.07 0.34,0.07l-0.09 0.3 -1.99 0 0.11 -0.3c0.19,0 0.32,-0.04 0.41,-0.11 0.07,-0.08 0.13,-0.21 0.19,-0.37l0.84 -2.65c0.11,-0.36 0.13,-0.59 -0.38,-0.59l0.1 -0.29 2.08 0 -0.09 0.29c-0.16,0 -0.28,0.02 -0.37,0.03 -0.19,0.04 -0.28,0.29 -0.33,0.45l-0.5 1.51 2.06 -1.4c0.2,-0.15 0.31,-0.28 0.31,-0.38 0,-0.23 -0.37,-0.21 -0.53,-0.21l0.1 -0.29 2.07 0 0 -0.01zm92.68 1.81c0,1.16 -0.75,2.1 -1.88,2.39 -0.47,0.12 -0.92,0.12 -1.4,0.12l-1.87 0 0.1 -0.3c0.16,0 0.28,-0.04 0.35,-0.11 0.07,-0.09 0.13,-0.21 0.18,-0.37l0.89 -2.68c0.13,-0.4 0.04,-0.57 -0.4,-0.57l0.09 -0.29 1.65 0c0.28,0 0.51,0.01 0.71,0.04 0.88,0.13 1.58,0.87 1.58,1.77zm-1.01 -0.28c0,-0.61 -0.2,-1.04 -0.83,-1.17 -0.22,-0.04 -0.43,-0.04 -0.66,-0.04l-1.03 3.12c-0.04,0.15 -0.06,0.23 -0.06,0.28 0,0.2 0.19,0.3 0.58,0.3 0.43,0 0.76,-0.1 1.04,-0.32 0.58,-0.45 0.96,-1.44 0.96,-2.17zm-5.91 -0.47l-0.32 0c-0.1,-0.25 -0.2,-0.42 -0.3,-0.52 -0.27,-0.31 -0.88,-0.22 -1.27,-0.22l-0.53 1.62c0.22,0 0.53,0.01 0.73,-0.06 0.28,-0.11 0.35,-0.32 0.44,-0.59l0.33 0 -0.56 1.71 -0.34 0c0.06,-0.16 0.09,-0.29 0.09,-0.39 0,-0.42 -0.52,-0.35 -0.82,-0.35l-0.41 1.22c-0.04,0.12 -0.08,0.33 0.02,0.43 0.26,0.26 1.31,0.15 1.62,-0.09 0.21,-0.15 0.4,-0.37 0.57,-0.63l0.35 0 -0.4 1.18 -3.78 0 0.11 -0.29c0.16,0 0.29,-0.04 0.36,-0.13 0.07,-0.09 0.13,-0.2 0.17,-0.35l0.89 -2.71c0.15,-0.39 0.01,-0.54 -0.37,-0.54l0.08 -0.3 3.27 0 0.07 1.01zm-5.69 -1.06l-0.08 0.29c-0.19,0.01 -0.34,0.06 -0.44,0.14 -0.1,0.09 -0.22,0.28 -0.31,0.59l-1.11 3.35 -0.43 0 -1.59 -3.25 -0.73 2.22c-0.14,0.46 -0.05,0.7 0.49,0.7l-0.1 0.29 -1.58 0 0.11 -0.29c0.21,-0.03 0.36,-0.12 0.46,-0.26 0.11,-0.15 0.19,-0.33 0.27,-0.56l0.84 -2.57c-0.21,-0.34 -0.26,-0.36 -0.68,-0.36l0.1 -0.29 1.28 0 1.58 3.24c0.13,-0.4 0.82,-2.27 0.82,-2.56 0,-0.09 -0.05,-0.19 -0.14,-0.26 -0.08,-0.09 -0.23,-0.13 -0.45,-0.13l0.1 -0.29 1.59 0zm-7.19 0l-0.1 0.29c-0.33,0 -0.4,0.21 -0.5,0.48l-0.87 2.67c-0.15,0.39 0,0.58 0.42,0.58l-0.09 0.3 -1.95 0 0.1 -0.3c0.33,0 0.45,-0.2 0.53,-0.49l0.88 -2.67c0.14,-0.39 0.07,-0.54 -0.34,-0.6l0.1 -0.29 1.82 0 0 0.03zm-4.29 1.06l-0.33 0c-0.08,-0.17 -0.13,-0.32 -0.21,-0.42 -0.25,-0.44 -0.88,-0.32 -1.31,-0.32l-0.54 1.62c0.34,0 0.88,0.03 1.03,-0.35 0.03,-0.08 0.08,-0.18 0.14,-0.31l0.33 0 -0.57 1.71 -0.33 0c0.06,-0.18 0.09,-0.31 0.09,-0.4 0,-0.23 -0.18,-0.35 -0.55,-0.35l-0.27 0 -0.4 1.21c-0.17,0.52 0.09,0.59 0.53,0.59l-0.1 0.29 -2.08 0 0.11 -0.29c0.33,0 0.45,-0.19 0.54,-0.48l0.89 -2.72c0.05,-0.15 0.13,-0.43 -0.09,-0.49 -0.1,-0.03 -0.21,-0.06 -0.34,-0.06l0.09 -0.29 3.3 0 0.07 1.06zm-6.33 0l-0.32 0c-0.1,-0.25 -0.21,-0.42 -0.31,-0.52 -0.26,-0.31 -0.87,-0.22 -1.27,-0.22l-0.52 1.62c0.22,0 0.53,0.01 0.73,-0.06 0.28,-0.11 0.35,-0.32 0.43,-0.59l0.34 0 -0.57 1.71 -0.33 0c0.07,-0.2 0.19,-0.58 -0.09,-0.68 -0.2,-0.08 -0.43,-0.06 -0.64,-0.06l-0.41 1.22c-0.1,0.29 -0.08,0.45 0.25,0.53 0.38,0.09 1.07,0.05 1.38,-0.19 0.22,-0.15 0.41,-0.37 0.57,-0.63l0.35 0 -0.39 1.18 -3.78 0 0.1 -0.29c0.16,0 0.29,-0.04 0.36,-0.13 0.25,-0.29 0.9,-2.55 1.07,-3.06 0.15,-0.39 0,-0.54 -0.38,-0.54l0.09 -0.3 3.27 0 0.07 1.01zm-6.46 0.75c0,1.16 -0.75,2.1 -1.89,2.39 -0.47,0.12 -0.91,0.12 -1.4,0.12l-1.86 0 0.1 -0.3c0.16,0 0.28,-0.04 0.35,-0.11 0.07,-0.09 0.13,-0.21 0.17,-0.37l0.89 -2.68c0.05,-0.13 0.06,-0.24 0.06,-0.28 0,-0.12 -0.04,-0.2 -0.13,-0.23 -0.09,-0.03 -0.19,-0.06 -0.32,-0.06l0.09 -0.29 1.65 0c0.5,0 0.85,0.02 1.31,0.24 0.6,0.33 0.98,0.86 0.98,1.57zm-1.43 -1.29c-0.32,-0.21 -0.71,-0.2 -1.07,-0.2l-1.03 3.12c-0.05,0.15 -0.06,0.23 -0.06,0.28 0,0.2 0.19,0.3 0.58,0.3 0.42,0 0.76,-0.1 1.04,-0.32 0.71,-0.55 1.48,-2.66 0.54,-3.18zm-5.49 0.54l-0.32 0c-0.1,-0.25 -0.2,-0.42 -0.31,-0.52 -0.08,-0.11 -0.19,-0.16 -0.29,-0.19 -0.2,-0.06 -0.74,-0.03 -0.98,-0.03l-0.52 1.62c0.22,0 0.53,0.01 0.73,-0.06 0.28,-0.11 0.35,-0.32 0.44,-0.59l0.33 0 -0.57 1.71 -0.33 0c0.07,-0.2 0.19,-0.58 -0.09,-0.68 -0.2,-0.08 -0.43,-0.06 -0.64,-0.06l-0.41 1.22c-0.19,0.56 0.28,0.57 0.7,0.57 0.41,0 0.73,-0.07 0.93,-0.23 0.22,-0.15 0.41,-0.37 0.57,-0.63l0.35 0 -0.39 1.18 -3.78 0 0.1 -0.29c0.16,0 0.29,-0.04 0.37,-0.13 0.07,-0.09 0.13,-0.2 0.17,-0.35l0.89 -2.71c0.14,-0.37 0.03,-0.54 -0.38,-0.54l0.09 -0.3 3.27 0 0.07 1.01zm-7.19 1.08c-0.22,0.09 -0.48,0.15 -0.8,0.16 0.11,0.09 0.2,0.18 0.27,0.29 0.27,0.38 0.26,1 0.66,1.29 0.12,0.09 0.26,0.14 0.47,0.17l-0.11 0.29 -1.21 0c-0.06,-0.07 -0.11,-0.17 -0.17,-0.29 -0.21,-0.41 -0.37,-1.06 -0.59,-1.43 -0.04,-0.07 -0.1,-0.14 -0.2,-0.19 -0.09,-0.04 -0.23,-0.07 -0.42,-0.07l-0.21 0 -0.36 1.09c-0.05,0.12 -0.06,0.22 -0.06,0.28 0,0.13 0.06,0.22 0.17,0.26 0.12,0.05 0.27,0.06 0.43,0.06l-0.1 0.29 -2.13 0 0.1 -0.29c0.13,0 0.23,-0.01 0.3,-0.04 0.08,-0.03 0.14,-0.07 0.18,-0.15 0.04,-0.07 0.09,-0.17 0.13,-0.3l0.89 -2.72c0.04,-0.13 0.06,-0.22 0.06,-0.25 0,-0.1 -0.05,-0.17 -0.13,-0.23 -0.09,-0.04 -0.18,-0.07 -0.28,-0.07l-0.13 0 0.09 -0.29 2.23 0c0.25,0 0.45,0.01 0.61,0.03 0.32,0.02 0.72,0.24 0.92,0.49 0.51,0.61 0.04,1.36 -0.61,1.62zm-0.16 -1.15c0,-0.29 -0.1,-0.47 -0.31,-0.56 -0.2,-0.07 -0.44,-0.11 -0.71,-0.11l-0.43 0 -0.57 1.73 0.37 0c0.52,0 0.87,-0.05 1.08,-0.16 0.17,-0.08 0.32,-0.22 0.42,-0.39 0.1,-0.18 0.15,-0.34 0.15,-0.51zm-9.59 3.06l-0.09 0.29 -2.13 0 0.11 -0.29c0.17,0 0.32,-0.01 0.41,-0.06 0.08,-0.04 0.15,-0.1 0.2,-0.2 0.04,-0.1 0.06,-0.25 0.06,-0.44l0 -0.54 -1.48 0c-0.12,0.17 -0.7,0.89 -0.7,1.05 0,0.13 0.15,0.21 0.43,0.21l0.2 0 -0.1 0.29 -1.68 0 0.1 -0.29c0.16,-0.02 0.32,-0.09 0.48,-0.22 0.16,-0.13 0.34,-0.32 0.53,-0.57l2.55 -3.34 0.6 0 -0.04 3.62c0,0.14 0.01,0.24 0.06,0.32 0.02,0.07 0.08,0.11 0.17,0.14 0.04,0.02 0.16,0.03 0.32,0.03zm-1.41 -3.25l-1.29 1.71 1.24 0 0.05 -1.71zm-4.06 -0.51c-0.15,0 -0.26,0.01 -0.35,0.03 -0.19,0.04 -0.29,0.28 -0.34,0.45l-0.89 2.68c-0.14,0.38 0,0.6 0.4,0.6l-0.09 0.29 -2.1 0 0.1 -0.29c0.44,0 0.57,-0.06 0.72,-0.49l0.45 -1.35 -2 0 -0.41 1.24c-0.06,0.19 -0.12,0.43 0.1,0.53 0.11,0.04 0.19,0.07 0.28,0.07l-0.1 0.29 -1.93 0 0.11 -0.29c0.34,0 0.48,-0.15 0.56,-0.48l0.89 -2.68c0.11,-0.33 0.05,-0.59 -0.33,-0.59l0.1 -0.29 2.03 0 -0.1 0.29c-0.43,0 -0.6,0.03 -0.73,0.48l-0.37 1.11 2 0 0.34 -1c0.06,-0.18 0.11,-0.38 -0.06,-0.51 -0.09,-0.06 -0.18,-0.08 -0.29,-0.08l0.1 -0.29 2.01 0 -0.1 0.28zm-7.08 -0.29l-0.4 1.24 -0.34 0c0.02,-0.11 0.03,-0.21 0.03,-0.29 0,-0.28 -0.06,-0.46 -0.19,-0.53 -0.27,-0.15 -0.6,-0.12 -0.9,-0.12l-1.04 3.14c-0.2,0.52 0.08,0.58 0.55,0.58l-0.1 0.3 -2.33 0 0.08 -0.3 0.12 0c0.43,0 0.58,-0.05 0.7,-0.48l1.08 -3.25c-0.85,0 -1.27,0.08 -1.65,0.93l-0.33 0 0.41 -1.24 4.31 0 0 0.02zm-6.59 0l-0.09 0.29c-0.19,0.01 -0.33,0.06 -0.44,0.14 -0.1,0.09 -0.21,0.28 -0.3,0.59l-1.11 3.35 -0.44 0 -1.59 -3.25 -0.73 2.22c-0.15,0.49 -0.02,0.7 0.5,0.7l-0.1 0.29 -1.58 0 0.1 -0.29c0.45,-0.06 0.61,-0.43 0.73,-0.82l0.85 -2.57c-0.22,-0.35 -0.28,-0.36 -0.69,-0.36l0.1 -0.29 1.29 0 1.57 3.24 0.68 -2.05c0.08,-0.25 0.26,-0.56 0.01,-0.77 -0.09,-0.09 -0.23,-0.13 -0.45,-0.13l0.1 -0.29 1.59 0zm-7.76 4.05l-0.09 0.29 -2.13 0 0.1 -0.29c0.24,0 0.51,-0.01 0.62,-0.26 0.08,-0.21 0.05,-0.73 0.05,-0.98l-1.47 0 -0.51 0.69c-0.12,0.17 -0.19,0.29 -0.19,0.36 0,0.13 0.15,0.21 0.42,0.21l0.21 0 -0.1 0.29 -1.68 0 0.1 -0.29c0.16,-0.02 0.32,-0.09 0.48,-0.22 0.16,-0.13 0.34,-0.32 0.53,-0.57l2.55 -3.34 0.6 0 -0.05 3.62c0,0.19 0.02,0.39 0.24,0.46 0.04,0.02 0.16,0.03 0.32,0.03zm-1.42 -3.25l-1.28 1.71 1.24 0 0.04 -1.71zm167.09 2.47c0,0.54 -0.29,0.95 -0.79,1.16 -0.25,0.1 -0.54,0.16 -0.85,0.16 -0.82,0 -1.69,-0.4 -1.69,-1.32 0,-0.7 0.52,-1.08 1.17,-1.16 -0.6,-0.16 -1.12,-0.51 -1.03,-1.2 0.1,-0.7 0.88,-1 1.51,-1 0.7,0 1.56,0.35 1.56,1.17 0,0.51 -0.34,0.86 -1.02,1.03 0.63,0.04 1.14,0.5 1.14,1.16zm-1 -0.09c0,-0.27 -0.07,-0.7 -0.35,-0.82 -0.1,-0.06 -0.2,-0.09 -0.32,-0.09 -0.6,0 -0.7,0.54 -0.7,1.04 0,0.46 0.14,0.95 0.69,0.95 0.6,0 0.68,-0.61 0.68,-1.08zm-0.04 -2.12c0,-0.4 -0.15,-0.86 -0.63,-0.86 -0.5,0 -0.65,0.43 -0.65,0.86 0,0.44 0.13,0.86 0.64,0.86 0.49,0 0.64,-0.43 0.64,-0.86zm-10.29 1.23c0,0.66 -0.06,1.33 -0.55,1.82 -0.32,0.32 -0.69,0.5 -1.12,0.5 -0.19,0 -0.38,-0.03 -0.57,-0.1 -0.85,-0.33 -1.11,-1.28 -1.11,-2.11 0,-1.08 0.28,-2.48 1.68,-2.48 1.31,0 1.67,1.27 1.67,2.37zm-1.22 -1.84c-0.2,-0.29 -0.72,-0.28 -0.89,0.03 -0.27,0.38 -0.23,1.45 -0.24,1.96 0,0.49 0.01,1.24 0.24,1.6 0.18,0.28 0.59,0.31 0.83,0.1 0.1,-0.09 0.16,-0.22 0.21,-0.38 0.1,-0.38 0.08,-0.84 0.08,-1.24 0,-0.55 0.08,-1.67 -0.23,-2.07zm-4.55 3.44l-0.16 0.85 -0.31 0c0.01,-0.05 0.01,-0.09 0.01,-0.12 0,-0.09 -0.05,-0.14 -0.18,-0.14l-2.44 0 0 -0.33c0.32,-0.27 0.64,-0.59 0.96,-0.93 0.31,-0.35 0.57,-0.7 0.79,-1.08 0.35,-0.63 0.57,-1.91 -0.48,-1.91 -0.62,0 -0.82,0.52 -0.56,1.04 0.01,0.02 0.02,0.04 0.03,0.05l-0.54 0.22c-0.1,-0.09 -0.18,-0.32 -0.2,-0.41 -0.02,-0.14 0,-0.3 0.04,-0.45 0.09,-0.34 0.35,-0.55 0.65,-0.67 0.31,-0.12 0.67,-0.15 0.98,-0.12 1.5,0.1 1.7,1.32 0.84,2.38 -0.55,0.68 -1.13,1 -1.74,1.61l2.31 0 0 0.01zm-9.41 0.6l-4.45 0 0 -0.31c0.3,0 0.51,-0.04 0.6,-0.11 0.08,-0.09 0.13,-0.22 0.13,-0.43l0 -2.9c0,-0.06 0,-0.12 -0.01,-0.17 -0.02,-0.14 -0.07,-0.25 -0.24,-0.31 -0.1,-0.04 -0.27,-0.06 -0.48,-0.06l0 -0.34 4.14 0 0.07 1.2 -0.33 0c-0.08,-0.28 -0.25,-0.73 -0.6,-0.77 -0.39,-0.09 -1.07,-0.05 -1.49,-0.05l0 1.64c0.24,0 0.69,0.03 0.91,-0.05 0.21,-0.07 0.23,-0.34 0.24,-0.54l0.35 0 0 1.54 -0.33 0c-0.02,-0.22 -0.02,-0.46 -0.26,-0.54 -0.22,-0.07 -0.67,-0.05 -0.91,-0.05l0 1.08c0,0.14 -0.01,0.5 0.09,0.6 0.04,0.06 0.14,0.1 0.26,0.13 0.38,0.08 1.03,0.03 1.23,-0.03 0.48,-0.13 0.68,-0.63 0.76,-1.08l0.36 0 -0.04 1.55zm-6.99 -0.06l-0.35 0c-0.06,-0.19 -0.13,-0.36 -0.25,-0.52 -1.56,1.44 -4.13,0.39 -4.13,-1.73 0,-1.44 1.21,-2.4 2.58,-2.4 0.63,0 1.14,0.19 1.55,0.57 0.06,-0.11 0.1,-0.24 0.16,-0.43l0.34 0 0.05 1.7 -0.35 0c-0.1,-0.54 -0.46,-1.04 -0.94,-1.29 -1.33,-0.66 -2.19,0.47 -2.19,1.77 0,2.14 1.87,2.73 2.87,1.27 0.16,-0.24 0.26,-0.46 0.31,-0.69l0.35 0 0 1.75zm-7.63 -4.17c-0.2,0.09 -0.22,0.27 -0.22,0.45 0,1.28 0,2.55 0,3.82l-0.34 0 -3.26 -3.58 0 2.53c0,0.24 -0.02,0.53 0.24,0.63 0.1,0.04 0.28,0.07 0.51,0.07l0 0.31 -1.85 0 0 -0.31c0.22,0 0.38,-0.03 0.48,-0.07 0.25,-0.11 0.22,-0.4 0.22,-0.63l0 -2.35c0,-0.61 -0.03,-0.87 -0.68,-0.93l0 -0.34 1.45 0 2.85 3.11c0,-0.73 0.02,-1.51 0,-2.23 -0.01,-0.2 -0.05,-0.37 -0.23,-0.48 -0.11,-0.06 -0.27,-0.07 -0.49,-0.07l0 -0.33 1.87 0 0 0.33c-0.17,0 -0.4,0 -0.55,0.07zm-7.14 4.23l-2.54 0 0 -0.31c0.46,0 0.75,-0.02 0.75,-0.55l0 -2.53c0,-0.73 0.04,-0.91 -0.75,-0.91l0 -0.33 2.54 0 0 0.31c-0.71,0 -0.73,0.15 -0.73,0.81l0 2.5c0,0.07 0,0.14 0,0.21 0.02,0.45 0.28,0.48 0.73,0.48l0 0.32z"/>
</svg>
